<?xml version="1.0" encoding="UTF-8" standalone="no"?>
<!-- Uploaded to: SVG Repo, www.svgrepo.com, Generator: SVG Repo Mixer Tools -->

<svg
   width="699.99988"
   height="700.00012"
   viewBox="0 0 13.999998 14.000002"
   fill="none"
   version="1.1"
   id="svg2"
   xmlns="http://www.w3.org/2000/svg"
   xmlns:svg="http://www.w3.org/2000/svg">
  <defs
     id="defs2" />
  <path
     fill="#326de6"
     d="m 3.5001205,13.569003 c 0.214,0.278 0.539,0.431 0.874,0.431 h 5.251 c 0.335,0 0.6599995,-0.165 0.8749995,-0.434 l 3.258,-4.1780003 c 0.214,-0.278 0.288,-0.633 0.214,-0.978 l -1.165,-5.207 a 1.128,1.128 0 0 0 -0.606,-0.777 L 7.4871205,0.11600268 A 1.062,1.062 0 0 0 7.0021205,2.682209e-6 c -0.168,0 -0.335,0.037999997791 -0.485,0.114999997791 l -4.715,2.32000002 a 1.129,1.129 0 0 0 -0.605,0.777 l -1.16500004,5.208 c -0.084,0.345 0,0.7 0.214,0.978 L 3.5001205,13.568003 Z"
     id="path1" />
  <path
     fill="#ffffff"
     fill-rule="evenodd"
     d="m 11.74112,8.1280027 c 0.098,0.002 0.196,0.01 0.293,0.024 l 0.058,0.013 0.031,0.008 a 0.308,0.308 0 0 1 0.26,0.371 0.306,0.306 0 0 1 -0.396,0.223 h -0.004 l -0.003,-0.001 -0.003,-0.002 a 1.58,1.58 0 0 0 -0.03,-0.006 l -0.05,-0.01 a 2.55,2.55 0 0 1 -0.274,-0.106 2.867,2.867 0 0 0 -0.533,-0.157 0.242,0.242 0 0 0 -0.171,0.064 4.656,4.656 0 0 0 -0.131,-0.023 3.971,3.971 0 0 1 -1.7639995,2.2120003 c 0.015,0.042 0.032,0.083 0.051,0.123 a 0.239,0.239 0 0 0 -0.023,0.18 c 0.074,0.17 0.165,0.332 0.271,0.484 0.06,0.078 0.114,0.16 0.164,0.244 l 0.028,0.057 0.012,0.025 a 0.306,0.306 0 0 1 -0.381,0.44 0.308,0.308 0 0 1 -0.172,-0.18 l -0.01,-0.02 a 1.57,1.57 0 0 1 -0.028,-0.058 2.546,2.546 0 0 1 -0.089,-0.28 2.837,2.837 0 0 0 -0.21,-0.512 0.242,0.242 0 0 0 -0.156,-0.095 l -0.03,-0.053 -0.035,-0.064 a 3.97,3.97 0 0 1 -2.823,-0.007 l -0.07,0.125 a 0.25,0.25 0 0 0 -0.132,0.064 2.13,2.13 0 0 0 -0.237,0.548 2.518,2.518 0 0 1 -0.088,0.28 1.196,1.196 0 0 1 -0.025,0.05 l -0.013,0.027 v 0.001 a 0.306,0.306 0 0 1 -0.421,0.173 0.308,0.308 0 0 1 -0.173,-0.314 0.306,0.306 0 0 1 0.041,-0.12 l 0.014,-0.03 0.026,-0.052 c 0.05,-0.085 0.104,-0.166 0.164,-0.244 0.108,-0.156 0.2,-0.322 0.277,-0.496 a 0.302,0.302 0 0 0 -0.028,-0.173 l 0.056,-0.133 a 3.972,3.972 0 0 1 -1.764,-2.1960003 l -0.134,0.023 a 0.34,0.34 0 0 0 -0.176,-0.062 2.871,2.871 0 0 0 -0.533,0.156 c -0.09,0.04 -0.181,0.075 -0.274,0.105 a 1.017,1.017 0 0 1 -0.05,0.011 l -0.03,0.007 h -0.003 l -0.002,0.002 h -0.005 a 0.308,0.308 0 0 1 -0.397,-0.349 0.306,0.306 0 0 1 0.261,-0.245 l 0.005,-10e-4 h 0.002 l 0.006,-0.002 c 0.024,-0.006 0.054,-0.014 0.076,-0.018 0.097,-0.013 0.195,-0.021 0.293,-0.023 0.186,-0.013 0.37,-0.043 0.549,-0.09 a 0.422,0.422 0 0 0 0.131,-0.133 l 0.128,-0.037 a 3.938,3.938 0 0 1 0.625,-2.752 l -0.098,-0.087 a 0.338,0.338 0 0 0 -0.062,-0.176 2.854,2.854 0 0 0 -0.455,-0.319 2.557,2.557 0 0 1 -0.254,-0.148 l -0.048,-0.038 -0.015,-0.013 -0.004,-0.003 a 0.323,0.323 0 0 1 -0.076,-0.45 0.295,0.295 0 0 1 0.244,-0.107 0.365,0.365 0 0 1 0.213,0.08 l 0.022,0.017 c 0.016,0.013 0.034,0.026 0.046,0.037 0.072,0.067 0.139,0.139 0.202,0.213 0.125,0.137 0.263,0.262 0.412,0.372 0.056,0.03 0.121,0.036 0.182,0.018 l 0.11,0.078 a 3.938,3.938 0 0 1 2.552,-1.224 l 0.008,-0.129 a 0.332,0.332 0 0 0 0.099,-0.158 2.844,2.844 0 0 0 -0.034,-0.553 2.56,2.56 0 0 1 -0.042,-0.29 v -0.082 -0.005 a 0.306,0.306 0 0 1 0.306,-0.337 0.308,0.308 0 0 1 0.306,0.337 v 0.087 a 2.529,2.529 0 0 1 -0.041,0.29 2.85,2.85 0 0 0 -0.035,0.553 0.242,0.242 0 0 0 0.1,0.153 v 0.007 l 0.007,0.129 c 0.967,0.088 1.87,0.522 2.54,1.223 l 0.116,-0.082 a 0.34,0.34 0 0 0 0.1859995,-0.02 c 0.149,-0.11 0.287,-0.236 0.412,-0.373 0.063,-0.075 0.13,-0.146 0.202,-0.213 l 0.051,-0.04 0.017,-0.014 a 0.307,0.307 0 1 1 0.381,0.477 l -0.024,0.02 c -0.015,0.012 -0.03,0.025 -0.043,0.034 a 2.537,2.537 0 0 1 -0.254,0.148 2.87,2.87 0 0 0 -0.455,0.32 0.241,0.241 0 0 0 -0.058,0.172 l -0.05,0.044 -0.058,0.053 c 0.542,0.806 0.77,1.783 0.637,2.745 l 0.123,0.036 c 0.031,0.055 0.077,0.101 0.133,0.132 0.179,0.048 0.363,0.078 0.548,0.09 z m -5.4499995,-3.888 c 0.107,-0.024 0.216,-0.043 0.326,-0.056 l -0.09,1.6 -0.008,0.004 a 0.268,0.268 0 0 1 -0.293,0.256 0.27,0.27 0 0 1 -0.135,-0.05 l -0.002,10e-4 -1.316,-0.93 c 0.419,-0.41 0.945,-0.696 1.518,-0.825 z m 1.618,1.75 1.308,-0.924 a 3.182,3.182 0 0 0 -1.833,-0.882 l 0.09,1.598 h 0.002 a 0.268,0.268 0 0 0 0.294,0.256 0.27,0.27 0 0 0 0.135,-0.05 z m 2.2479995,1.656 -1.5479995,-0.446 -0.002,-0.006 a 0.27,0.27 0 0 1 -0.185,-0.343 0.27,0.27 0 0 1 0.08,-0.12 l -0.002,-0.001 1.195,-1.067 c 0.3659995,0.594 0.5269995,1.29 0.4599995,1.983 z m -2.0609995,0.854 0.618,1.49 a 3.148,3.148 0 0 0 1.275,-1.598 l -1.593,-0.269 -0.002,0.003 a 0.26,0.26 0 0 0 -0.166,0.023 0.27,0.27 0 0 0 -0.13,0.348 z m -0.385,1.9050003 c -0.573,0.13 -1.17,0.1 -1.727,-0.088 l 0.777,-1.4000003 h 0.001 a 0.27,0.27 0 0 1 0.475,-10e-4 h 0.006 l 0.779,1.4020003 a 3.286,3.286 0 0 1 -0.311,0.087 z m -2.418,-0.4220003 0.611,-1.474 -0.004,-0.006 a 0.268,0.268 0 0 0 -0.297,-0.37 l -0.003,-0.003 -1.579,0.267 a 3.16,3.16 0 0 0 1.272,1.586 z m -0.997,-4.32 1.201,1.071 -0.001,0.007 a 0.269,0.269 0 0 1 -0.106,0.462 l -0.001,0.005 -1.54,0.443 a 3.134,3.134 0 0 1 0.447,-1.988 z m 2.95,1.154 h -0.492 l -0.307,0.38 0.11,0.476 0.443,0.213 0.442,-0.212 0.11,-0.476 z"
     clip-rule="evenodd"
     id="path2" />
</svg>
